<svg width="73" height="16" viewBox="0 0 73 16" fill="none" xmlns="http://www.w3.org/2000/svg">
<path d="M0.574297 6.54H3.6143V14.98C3.4943 15.02 3.30096 15.0533 3.0343 15.08C2.76763 15.12 2.4943 15.14 2.2143 15.14C1.6143 15.14 1.18763 15.0333 0.934297 14.82C0.694297 14.6067 0.574297 14.2333 0.574297 13.7V6.54ZM3.6143 10.38H0.574297V2.84C0.70763 2.81333 0.90763 2.78 1.1743 2.74C1.4543 2.7 1.72763 2.68 1.9943 2.68C2.56763 2.68 2.98096 2.78 3.2343 2.98C3.48763 3.18 3.6143 3.56 3.6143 4.12V10.38ZM9.17273 7.98V10.48H6.21273V7.62C6.21273 7.24667 6.2994 6.93333 6.47273 6.68C6.6594 6.41333 6.91273 6.18 7.23273 5.98C7.67273 5.71333 8.1994 5.50667 8.81273 5.36C9.4394 5.2 10.0927 5.12 10.7727 5.12C12.1327 5.12 12.8127 5.57333 12.8127 6.48C12.8127 6.69333 12.7794 6.89333 12.7127 7.08C12.6594 7.26667 12.5927 7.42667 12.5127 7.56C12.3794 7.53333 12.2127 7.51333 12.0127 7.5C11.8261 7.47333 11.6194 7.46 11.3927 7.46C10.9927 7.46 10.5927 7.50667 10.1927 7.6C9.79273 7.69333 9.45273 7.82 9.17273 7.98ZM6.21273 9.72L9.17273 9.78V14.98C9.0394 15.02 8.85273 15.0533 8.61273 15.08C8.37273 15.12 8.11273 15.14 7.83273 15.14C7.27273 15.14 6.8594 15.04 6.59273 14.84C6.3394 14.64 6.21273 14.28 6.21273 13.76V9.72ZM14.3987 9.72L17.3787 9.78V14.98C17.2453 15.02 17.0587 15.0533 16.8187 15.08C16.5787 15.12 16.3187 15.14 16.0387 15.14C15.4787 15.14 15.0653 15.04 14.7987 14.84C14.532 14.64 14.3987 14.28 14.3987 13.76V9.72ZM17.3787 11.32L14.3987 11.26V1.98C14.532 1.94 14.7187 1.9 14.9587 1.86C15.1987 1.82 15.4587 1.8 15.7387 1.8C16.312 1.8 16.7253 1.9 16.9787 2.1C17.2453 2.3 17.3787 2.66667 17.3787 3.2V11.32ZM23.7465 13.1C24.0532 13.1 24.3532 13.0733 24.6465 13.02C24.9532 12.9533 25.1732 12.88 25.3065 12.8V10.88L23.6265 11.04C23.1732 11.0667 22.8132 11.16 22.5465 11.32C22.2798 11.48 22.1465 11.72 22.1465 12.04C22.1465 12.36 22.2732 12.62 22.5265 12.82C22.7798 13.0067 23.1865 13.1 23.7465 13.1ZM23.6265 5.1C25.0132 5.1 26.1198 5.39333 26.9465 5.98C27.7732 6.55333 28.1865 7.44667 28.1865 8.66V13.2C28.1865 13.5333 28.0998 13.8067 27.9265 14.02C27.7532 14.22 27.5332 14.3933 27.2665 14.54C26.8665 14.78 26.3665 14.9667 25.7665 15.1C25.1798 15.2467 24.5065 15.32 23.7465 15.32C22.3865 15.32 21.2998 15.0533 20.4865 14.52C19.6865 13.9867 19.2865 13.1933 19.2865 12.14C19.2865 11.2333 19.5665 10.54 20.1265 10.06C20.6865 9.56667 21.5198 9.26667 22.6265 9.16L25.2865 8.88V8.64C25.2865 8.18667 25.1065 7.86 24.7465 7.66C24.3998 7.46 23.8998 7.36 23.2465 7.36C22.7398 7.36 22.2398 7.42 21.7465 7.54C21.2665 7.66 20.8332 7.8 20.4465 7.96C20.2865 7.85333 20.1465 7.69333 20.0265 7.48C19.9198 7.25333 19.8665 7.02 19.8665 6.78C19.8665 6.22 20.1732 5.81333 20.7865 5.56C21.1732 5.4 21.6198 5.28667 22.1265 5.22C22.6465 5.14 23.1465 5.1 23.6265 5.1ZM39.6505 8.78V10.66H36.6705V8.88C36.6705 8.38667 36.5239 8.02667 36.2305 7.8C35.9505 7.56 35.5772 7.44 35.1105 7.44C34.7772 7.44 34.4705 7.48667 34.1905 7.58C33.9105 7.66 33.6572 7.76 33.4305 7.88V10.66H30.4705V7.54C30.4705 7.20667 30.5372 6.93333 30.6705 6.72C30.8172 6.49333 31.0239 6.29333 31.2905 6.12C31.7172 5.82667 32.2639 5.58667 32.9305 5.4C33.5972 5.2 34.3305 5.1 35.1305 5.1C36.5705 5.1 37.6839 5.42 38.4705 6.06C39.2572 6.68667 39.6505 7.59333 39.6505 8.78ZM30.4705 9.74H33.4305V14.98C33.2972 15.02 33.1105 15.0533 32.8705 15.08C32.6305 15.12 32.3705 15.14 32.0905 15.14C31.5305 15.14 31.1172 15.04 30.8505 14.84C30.5972 14.64 30.4705 14.28 30.4705 13.76V9.74ZM36.6705 9.74H39.6505V14.98C39.5172 15.02 39.3305 15.0533 39.0905 15.08C38.8505 15.12 38.5905 15.14 38.3105 15.14C37.7505 15.14 37.3372 15.04 37.0705 14.84C36.8039 14.64 36.6705 14.28 36.6705 13.76V9.74ZM48.1945 12.62V6.6H51.1545V13C51.1545 13.32 51.0878 13.5933 50.9545 13.82C50.8211 14.0333 50.6078 14.2267 50.3145 14.4C49.9545 14.64 49.4811 14.8467 48.8945 15.02C48.3211 15.2067 47.6545 15.3 46.8945 15.3C45.7878 15.3 44.8278 15.1133 44.0145 14.74C43.2145 14.3667 42.5945 13.8067 42.1545 13.06C41.7278 12.3 41.5145 11.36 41.5145 10.24C41.5145 9.06667 41.7345 8.10667 42.1745 7.36C42.6278 6.6 43.2345 6.03333 43.9945 5.66C44.7545 5.28667 45.5945 5.1 46.5145 5.1C46.9945 5.1 47.4211 5.15333 47.7945 5.26C48.1678 5.36667 48.4745 5.49333 48.7145 5.64V8.08C48.5278 7.92 48.2811 7.77333 47.9745 7.64C47.6678 7.50667 47.3145 7.44 46.9145 7.44C46.4478 7.44 46.0345 7.54 45.6745 7.74C45.3145 7.94 45.0345 8.24667 44.8345 8.66C44.6345 9.07333 44.5345 9.6 44.5345 10.24C44.5345 11.1733 44.7411 11.86 45.1545 12.3C45.5811 12.74 46.1545 12.96 46.8745 12.96C47.1678 12.96 47.4278 12.9267 47.6545 12.86C47.8811 12.78 48.0611 12.7 48.1945 12.62ZM51.1545 7.18L48.1945 7.2V1.98C48.3145 1.94 48.4945 1.9 48.7345 1.86C48.9745 1.82 49.2345 1.8 49.5145 1.8C50.1011 1.8 50.5211 1.9 50.7745 2.1C51.0278 2.3 51.1545 2.66667 51.1545 3.2V7.18ZM54.8974 11.6L54.7774 9.6L59.7374 8.82C59.7108 8.44667 59.5508 8.1 59.2574 7.78C58.9641 7.46 58.5308 7.3 57.9574 7.3C57.3574 7.3 56.8574 7.50667 56.4574 7.92C56.0574 8.32 55.8441 8.89333 55.8174 9.64L55.9174 11.02C56.0374 11.7533 56.3508 12.28 56.8574 12.6C57.3641 12.9067 57.9641 13.06 58.6574 13.06C59.2174 13.06 59.7441 12.98 60.2374 12.82C60.7308 12.66 61.1308 12.4933 61.4374 12.32C61.6374 12.44 61.7974 12.6067 61.9174 12.82C62.0508 13.0333 62.1174 13.26 62.1174 13.5C62.1174 13.9 61.9574 14.2333 61.6374 14.5C61.3308 14.7667 60.8974 14.9667 60.3374 15.1C59.7908 15.2333 59.1641 15.3 58.4574 15.3C57.4308 15.3 56.5041 15.1067 55.6774 14.72C54.8641 14.3333 54.2241 13.7533 53.7574 12.98C53.2908 12.2067 53.0574 11.24 53.0574 10.08C53.0574 9.22667 53.1908 8.48667 53.4574 7.86C53.7374 7.23333 54.1041 6.72 54.5574 6.32C55.0241 5.90667 55.5441 5.6 56.1174 5.4C56.7041 5.2 57.3108 5.1 57.9374 5.1C58.8574 5.1 59.6574 5.28667 60.3374 5.66C61.0308 6.02 61.5708 6.51333 61.9574 7.14C62.3441 7.76667 62.5374 8.49333 62.5374 9.32C62.5374 9.73333 62.4241 10.0467 62.1974 10.26C61.9708 10.4733 61.6574 10.6067 61.2574 10.66L54.8974 11.6ZM58.8774 3.64L57.9574 2.52C57.6241 2.90667 57.3374 3.23333 57.0974 3.5C56.8574 3.75333 56.5974 4.04667 56.3174 4.38C55.8641 4.38 55.4974 4.27333 55.2174 4.06C54.9508 3.84667 54.8174 3.58 54.8174 3.26C54.8174 3.02 54.8841 2.81333 55.0174 2.64C55.1508 2.46667 55.3441 2.25333 55.5974 2L56.3974 1.16C56.6374 0.933332 56.8774 0.753332 57.1174 0.619999C57.3708 0.486666 57.6641 0.419999 57.9974 0.419999C58.3174 0.419999 58.6041 0.479999 58.8574 0.599999C59.1241 0.719999 59.4174 0.973333 59.7374 1.36L61.2174 3.16C61.2174 3.49333 61.1174 3.77333 60.9174 4C60.7308 4.22667 60.4441 4.34 60.0574 4.34C59.8174 4.34 59.6041 4.28 59.4174 4.16C59.2441 4.02667 59.0641 3.85333 58.8774 3.64ZM72.1568 12.2C72.1568 13.1733 71.7901 13.94 71.0568 14.5C70.3235 15.0467 69.2568 15.32 67.8568 15.32C66.7635 15.32 65.8635 15.16 65.1568 14.84C64.4501 14.52 64.0968 14.0467 64.0968 13.42C64.0968 13.14 64.1568 12.9 64.2768 12.7C64.3968 12.4867 64.5501 12.32 64.7368 12.2C65.1101 12.4133 65.5435 12.6133 66.0368 12.8C66.5435 12.9733 67.1168 13.06 67.7568 13.06C68.7301 13.06 69.2168 12.78 69.2168 12.22C69.2168 11.98 69.1301 11.7933 68.9568 11.66C68.7835 11.5133 68.4968 11.4067 68.0968 11.34L67.2568 11.14C66.1901 10.9133 65.3901 10.5667 64.8568 10.1C64.3368 9.62 64.0768 8.96667 64.0768 8.14C64.0768 7.20667 64.4501 6.46667 65.1968 5.92C65.9568 5.36 66.9768 5.08 68.2568 5.08C68.8968 5.08 69.4768 5.14667 69.9968 5.28C70.5301 5.4 70.9501 5.59333 71.2568 5.86C71.5635 6.11333 71.7168 6.43333 71.7168 6.82C71.7168 7.08667 71.6635 7.32 71.5568 7.52C71.4501 7.72 71.3101 7.88667 71.1368 8.02C70.9901 7.92667 70.7635 7.82667 70.4568 7.72C70.1635 7.61333 69.8368 7.52667 69.4768 7.46C69.1301 7.39333 68.8035 7.36 68.4968 7.36C68.0168 7.36 67.6435 7.42667 67.3768 7.56C67.1101 7.68 66.9768 7.87333 66.9768 8.14C66.9768 8.31333 67.0501 8.46667 67.1968 8.6C67.3568 8.72 67.6301 8.82 68.0168 8.9L68.8168 9.1C70.0035 9.36667 70.8568 9.75333 71.3768 10.26C71.8968 10.7533 72.1568 11.4 72.1568 12.2Z" fill="#403937"/>
</svg>
